/vscmnt/brussel_pixiu_data/_data_brussel/112/vsc11236/PredSimResults/SUBJ09opt3D/trackIG/worker_06.mot
version=1
nRows=6
nColumns=50
inDegrees=yes
endheader
                time	         pelvis_tilt	         pelvis_list	     pelvis_rotation	           pelvis_tx	           pelvis_ty	           pelvis_tz	       hip_flexion_r	     hip_adduction_r	      hip_rotation_r	        knee_angle_r	       ankle_angle_r	         mtp_angle_r	       hip_flexion_l	     hip_adduction_l	      hip_rotation_l	        knee_angle_l	       ankle_angle_l	         mtp_angle_l	    lumbar_extension	      lumbar_bending	     lumbar_rotation	 ercspn_r/activation	 intobl_r/activation	 extobl_r/activation	    abd_r/activation	    add_r/activation	hamstrings_r/activation	bifemsh_r/activation	glut_max_r/activation	iliopsoas_r/activation	rect_fem_r/activation	  vasti_r/activation	gastroc_r/activation	 soleus_r/activation	tib_ant_r/activation	 ercspn_l/activation	 intobl_l/activation	 extobl_l/activation	    abd_l/activation	    add_l/activation	hamstrings_l/activation	bifemsh_l/activation	glut_max_l/activation	iliopsoas_l/activation	rect_fem_l/activation	  vasti_l/activation	gastroc_l/activation	 soleus_l/activation	tib_ant_l/activation	
          0.67053676	         -3.73273234	          0.42988389	         -7.51515118	          0.73759043	          0.99386492	          0.00310336	        -12.58589056	         -2.11327849	         -6.49961551	        -11.25023359	          5.04882311	         34.84349415	         27.56472645	         -1.94899367	         -8.35772908	         -6.07634285	          3.37221263	          0.23867099	        -13.79258311	          2.08916872	          6.85143765	          0.01224077	          0.01000056	          0.01000096	          0.03259469	          0.01001792	          0.01561369	          0.11271842	          0.01497016	          0.01387515	          0.01000436	          0.01000106	          0.27917450	          0.22965188	          0.01223528	          0.01922683	          0.16721505	          0.03637161	          0.01000019	          0.21286568	          0.04770922	          0.11609479	          0.06884860	          0.12347156	          0.01502263	          0.01000086	          0.01494855	          0.01000090	          0.30493723	
          0.68394749	         -3.79648070	          0.51473213	         -7.47924940	          0.75675917	          0.99174987	          0.00212342	        -13.23590611	         -2.41870993	         -6.96987636	        -11.87823785	          4.03114489	         36.33711486	         27.40502288	         -1.78293633	         -8.49486248	         -7.60264581	          2.98631383	          0.20814267	        -13.27876283	          1.64951567	          7.06849074	          0.01000517	          0.01000020	          0.01000402	          0.02664028	          0.01000090	          0.01276164	          0.09212854	          0.01223549	          0.01134158	          0.01000111	          0.01000125	          0.25443941	          0.20662530	          0.01000020	          0.01571487	          0.13666831	          0.02972726	          0.05913559	          0.18214749	          0.05721903	          0.09488692	          0.09772451	          0.10091570	          0.01227836	          0.01000074	          0.01223912	          0.01223545	          0.33856173	
          0.69735823	         -3.84121299	          0.61130238	         -7.40782145	          0.77626410	          0.98996807	          0.00106141	        -13.71643138	         -2.76210228	         -7.45804161	        -12.85680426	          2.86301124	         37.81002033	         27.13038933	         -1.60810510	         -8.66744888	         -8.97310531	          2.41831707	          0.20272926	        -12.74426805	          1.19369563	          7.25103129	          0.01000409	          0.01000011	          0.01000045	          0.02177363	          0.01000060	          0.01043058	          0.07529921	          0.01000042	          0.01490811	          0.01000346	          0.01000049	          0.21397532	          0.18289748	          0.01000013	          0.02139006	          0.11170168	          0.02429670	          0.10779109	          0.19162606	          0.05218539	          0.07755322	          0.12719818	          0.08248036	          0.01003550	          0.01000130	          0.01000345	          0.01000039	          0.38017848	
          0.71076896	         -3.86757270	          0.71004409	         -7.30102112	          0.79576655	          0.98872562	         -0.00009102	        -13.92563818	         -3.14464972	         -7.95819649	        -14.33001762	          1.55978287	         39.14636152	         26.89216690	         -1.43797999	         -8.88708164	        -10.43376329	          1.85373449	          0.17330540	        -12.23008169	          0.73264353	          7.39527199	          0.05497870	          0.01000034	          0.01000040	          0.01779602	          0.01000212	          0.02140985	          0.06154399	          0.01000051	          0.01218604	          0.01000190	          0.01496043	          0.17488621	          0.14948592	          0.01000010	          0.02189896	          0.09129595	          0.01985821	          0.15261966	          0.21136398	          0.05365286	          0.06338600	          0.11936026	          0.06741281	          0.01000056	          0.07168137	          0.01000098	          0.01000065	          0.40286589	
          0.72417970	         -3.87709107	          0.81884813	         -7.17149946	          0.81504636	          0.98817460	         -0.00131928	        -13.79402534	         -3.58678350	         -8.46729208	        -16.38826627	          0.15497365	         40.14920552	         26.71672962	         -1.26069485	         -9.07841124	        -12.06254110	          1.59375172	          0.13771027	        -11.75596390	          0.25834535	          7.50754250	          0.08343356	          0.01000105	          0.01000041	          0.01454504	          0.07779290	          0.03898214	          0.05030175	          0.01000025	          0.01000410	          0.01000078	          0.01222820	          0.14293788	          0.12217776	          0.01000015	          0.01791248	          0.07461796	          0.01623055	          0.17699327	          0.21929693	          0.05242174	          0.05180686	          0.13747889	          0.05509781	          0.01000075	          0.14992758	          0.01000156	          0.01000090	          0.40273603	
          0.73759043	         -3.87243155	          0.92769203	         -7.02286665	          0.83391929	          0.98843688	         -0.00259053	        -13.25803396	         -4.08657536	         -9.03387358	        -19.11338869	         -1.30104189	         40.52906207	         26.54073441	         -1.07099619	         -9.20148511	        -13.73404621	          1.69794049	          0.10730925	        -11.33885252	         -0.21869149	          7.58913152	          0.08611871	          0.01160201	          0.01000045	          0.01188797	          0.14168588	          0.04232309	          0.04111378	          0.01000015	          0.01000445	          0.01000055	          0.01000056	          0.11682589	          0.09985825	          0.01000018	          0.01578296	          0.06098672	          0.01326563	          0.18505876	          0.25368275	          0.05462173	          0.04234301	          0.14259310	          0.04503252	          0.01000057	          0.17913112	          0.01000093	          0.01000045	          0.37475118	
